<!--
  Copyright (c) 2026, tephpy Contributors.

  This file is part of tephpy and is distributed under the 3-Clause BSD license.
  See the LICENSE file in the package root directory for licensing details.
-->
<svg xmlns="http://www.w3.org/2000/svg" viewBox="0 0 64 64" width="64" height="64" role="img" aria-label="a run of entries, the newest marked">
  <title>a run of entries, the newest marked</title>
  <g stroke="#8FB8E8" stroke-width="1.6" stroke-linecap="round" opacity="0.20">
    <path d="M-2 14 L50 66"/><path d="M12 0 L64 52"/><path d="M26 -14 L78 38"/>
    <path d="M66 14 L14 66"/><path d="M52 0 L0 52"/><path d="M38 -14 L-14 38"/>
  </g>
  <path d="M19 15 L19 51" fill="none" stroke="#8FB8E8" stroke-width="3.4" stroke-linecap="round"/>
  <g fill="none" stroke="#8FB8E8" stroke-width="4" stroke-linecap="round">
    <path d="M30 15 L51 15"/><path d="M30 33 L46 33"/><path d="M30 51 L49 51"/>
  </g>
  <circle cx="19" cy="15" r="7.2" fill="#14181e"/><circle cx="19" cy="15" r="4.6" fill="#E4572E"/>
  <circle cx="19" cy="33" r="7.2" fill="#14181e"/><circle cx="19" cy="33" r="4.6" fill="#8FB8E8"/>
  <circle cx="19" cy="51" r="7.2" fill="#14181e"/><circle cx="19" cy="51" r="4.6" fill="#8FB8E8"/>
</svg>
